<?xml version="1.0" ?><svg viewBox="0 0 64 64" xmlns="http://www.w3.org/2000/svg"><g id="a"/><g id="b"/><g id="c"/><g id="d"/><g id="e"/><g id="f"/><g id="g"/><g id="h"/><g id="i"/><g id="j"/><g id="k"/><g id="l"/><g id="m"/><g id="n"/><g id="o"><path d="M56.34,19.64l-7.63,2.29c-1.88,.57-3.29,2.24-3.52,4.18l-.99,8.39-3.71,1.61c-1.74,.75-2.9,2.4-3.02,4.3l-.16,2.57c-.1,.04-.19,.07-.29,.11-1.71,.74-3.38,1.38-5.03,1.98-.49-.18-.99-.4-1.48-.58l-1.04-3.09c1.5-1.81,2.36-4.05,2.36-6.42,0-5.56-4.52-10.08-10.09-10.09-2.36,0-4.59,.85-6.4,2.34-.31-.07-.62-.12-.94-.12H7.23c-1.78,0-3.23,1.45-3.23,3.23v24.43c0,1.78,1.45,3.23,3.23,3.23H56.2c2.1,0,3.8-1.72,3.8-3.83V22.43c0-.91-.44-1.79-1.19-2.34-.73-.54-1.63-.7-2.47-.45Zm-16.87,20.89c.07-1.14,.77-2.13,1.82-2.59l2.64-1.15-.49,4.16c-1.29,.29-2.64,.69-4.07,1.21l.1-1.64Zm-19.25,7.66c-.28-.2-.51-.47-.72-.74v-4.64c2.03,.41,4.24,1.07,6.67,2.12,.96,.42,1.91,.76,2.87,1.13-2.98,.93-5.91,1.65-8.82,2.13Zm6.74-5.09c-2.71-1.17-5.2-1.92-7.47-2.33v-3.75l5.53,.82c.73,.11,1.33,.61,1.57,1.31l1.48,4.38c-.37-.16-.74-.28-1.11-.44Zm2.86-8.11c0,1.46-.41,2.87-1.14,4.1l-.19-.57c-.48-1.42-1.69-2.43-3.17-2.65l-5.83-.87v-2.07c0-1.07-.32-2.1-.92-2.99l-.63-.94c-.19-.28-.41-.53-.66-.75,1.31-.87,2.85-1.35,4.45-1.35,4.46,0,8.09,3.63,8.09,8.09ZM7.23,29.12h4.79v1.62c0,.55,.45,1,1,1s1-.45,1-1v-1.62h.4c.76,0,1.46,.38,1.89,1l.63,.94c.37,.55,.57,1.2,.57,1.87v11.8c-.8-.85-1.9-1.36-3.09-1.36h-.4v-7.53c0-.55-.45-1-1-1s-1,.45-1,1v7.53H7.23c-.44,0-.85,.09-1.23,.25v-13.26c0-.68,.55-1.23,1.23-1.23Zm0,26.89c-.68,0-1.23-.55-1.23-1.23v-8.19c0-.68,.55-1.23,1.23-1.23h7.18c.76,0,1.46,.38,1.89,1,.92,1.36,2.19,3.68,4.59,4.34l3.92,1.08c.73,.2,1.3,.75,1.53,1.46l.5,1.54c.09,.29,.04,.59-.13,.83-.18,.24-.45,.38-.75,.38H7.23Zm48.97,0H28.66c.21-.59,.29-1.22,.09-1.83l-.5-1.54c-.44-1.36-1.52-2.39-2.9-2.77l-1.32-.37c13.37-2.98,22.28-10.4,29.46-5.69,4.3,2.82,4.52,9.14,4.52,10.37,0,1.01-.81,1.83-1.8,1.83Zm-1.61-13.88c-2.38-1.56-5.43-2.07-9.08-1.56l1.68-14.23c.14-1.15,.98-2.16,2.11-2.5l7.63-2.29c.32-.1,.57,.05,.7,.14,.24,.18,.38,.45,.38,.74v23.52c-.79-1.44-1.87-2.8-3.42-3.82Z"/><path d="M20.75,21.06v1.4c0,.55,.45,1,1,1s1-.45,1-1v-1.4c0-.55-.45-1-1-1s-1,.45-1,1Z"/><path d="M34.27,33.99c-.55,0-1,.45-1,1s.45,1,1,1h1.4c.55,0,1-.45,1-1s-.45-1-1-1h-1.4Z"/><path d="M30.88,24.7l-.99,.99c-.39,.39-.39,1.02,0,1.41,.2,.2,.45,.29,.71,.29s.51-.1,.71-.29l.99-.99c.39-.39,.39-1.02,0-1.41s-1.02-.39-1.41,0Z"/><path d="M40.83,12.69h1.37c1.85,0,3.35-1.5,3.35-3.35s-1.5-3.35-3.35-3.35H23.47c-1.85,0-3.35,1.5-3.35,3.35s1.5,3.35,3.35,3.35h5.4c.36,0,.64,.29,.64,.65s-.28,.65-.64,.65h-.75c-1.85,0-3.35,1.5-3.35,3.35s1.5,3.35,3.35,3.35h17.29c1.85,0,3.35-1.5,3.35-3.35s-1.5-3.35-3.35-3.35h-4.59c-.36,0-.65-.29-.65-.65s.29-.65,.65-.65Zm0,3.3h4.59c.74,0,1.35,.6,1.35,1.35s-.6,1.35-1.35,1.35H28.12c-.74,0-1.35-.6-1.35-1.35s.6-1.35,1.35-1.35h.76c1.45,0,2.63-1.2,2.63-2.65s-1.18-2.64-2.64-2.65h-5.4c-.74,0-1.35-.61-1.35-1.35s.6-1.35,1.35-1.35h18.72c.74,0,1.35,.6,1.35,1.35s-.6,1.35-1.35,1.35h-1.37c-1.46,0-2.65,1.19-2.65,2.65s1.19,2.65,2.65,2.65Z"/><path d="M15.34,20.68c1.8,0,3.27-1.47,3.27-3.27s-1.47-3.27-3.27-3.27h-6.38c-1.8,0-3.27,1.47-3.27,3.27s1.47,3.27,3.27,3.27h6.38Zm-7.65-3.27c0-.7,.57-1.27,1.27-1.27h6.38c.7,0,1.27,.57,1.27,1.27s-.57,1.27-1.27,1.27h-6.38c-.7,0-1.27-.57-1.27-1.27Z"/></g><g id="p"/><g id="q"/><g id="r"/><g id="s"/><g id="t"/><g id="u"/><g id="v"/><g id="w"/><g id="x"/><g id="y"/><g id="a`"/><g id="aa"/><g id="ab"/><g id="ac"/><g id="ad"/><g id="ae"/><g id="af"/><g id="ag"/><g id="ah"/><g id="ai"/><g id="aj"/><g id="ak"/><g id="al"/><g id="am"/><g id="an"/><g id="ao"/><g id="ap"/><g id="aq"/><g id="ar"/><g id="as"/><g id="at"/><g id="au"/><g id="av"/><g id="aw"/><g id="ax"/></svg>