<?xml version="1.0" encoding="iso-8859-1"?>
<!-- Generator: Adobe Illustrator 16.0.0, SVG Export Plug-In . SVG Version: 6.00 Build 0)  -->
<!DOCTYPE svg PUBLIC "-//W3C//DTD SVG 1.1//EN" "http://www.w3.org/Graphics/SVG/1.1/DTD/svg11.dtd">
<svg version="1.1" id="Capa_1" xmlns="http://www.w3.org/2000/svg" xmlns:xlink="http://www.w3.org/1999/xlink" x="0px" y="0px"
	 width="619.319px" height="619.32px" viewBox="0 0 619.319 619.32" style="enable-background:new 0 0 619.319 619.32;"
	 xml:space="preserve">
<g>
	<path style="fill:#27241F;" d="M310.845,400.265c0.029-6.599,0.133-12.306,0.218-16.345c0.142-4.257,0.208-6.751,0.208-6.751
		c0.588-3.071,1.981-5.973,3.831-8.362c3.64-4.589,9.292-7.604,15.663-7.604c11.017,0,19.967,8.932,19.967,19.91
		c0,0.379,0,0.739-0.038,1.119c0,0,0,0.208-0.057,0.625c-0.038,0.38-0.085,0.777-0.133,1.157c-0.028,0.171-0.028,0.341-0.076,0.55
		c0,0.133-0.037,0.304-0.075,0.474c-0.854,4.286-3.84,13.748-14.544,28.86c-0.598,0.797-1.157,1.697-1.802,2.513
		c-2.408,2.702-5.935,4.418-9.869,4.418c-7.329,0-13.293-5.896-13.293-13.235c-0.009-2.19-0.009-4.257-0.009-6.267v-1.062H310.845
		L310.845,400.265z M566.473,0H52.871C36.25,0,22.66,13.601,22.66,30.211v61.224c0,0-0.01,0.204-0.029,0.36
		c0.991,18.583,7.632,60.532,47.708,60.532c45.504,0,81.319,0,81.319,0v50.24c0,10.273,8.301,18.592,18.592,18.592h55.872
		c10.429,0,18.744-8.319,18.744-18.592v-50.24h125.226c0,0,47.728-2.835,47.728,53.35v249.527c0,35.137-26.13,41.546-39.915,42.494
		h-83.177c8.827-17.389,13.634-33.639,15.853-46.686c2.55,0.854,5.224,1.403,8.068,1.403c7.519,0,14.354-3.299,19-8.528
		c1.195-1.555,2.333-3.261,3.433-4.778c20.631-29.088,26.386-47.291,27.988-55.568c0.075-0.312,0.17-0.635,0.17-0.872
		c0.076-0.379,0.076-0.721,0.152-1.118c0.085-0.73,0.142-1.451,0.228-2.162c0.113-0.834,0.113-1.214,0.113-1.214
		c0.057-0.739,0.057-1.432,0.057-2.181c0-21.123-17.227-38.284-38.397-38.284c-6.741,0-13.065,1.792-18.564,4.854v-11.832
		c0-13.217-10.742-24.04-24.062-24.04H116.678c-13.312,0-24.049,10.823-24.049,24.04v96.365c0,3.925,0.232,9.519,1.128,16.439v0.076
		c1.707,13.941,6.504,33.207,17.019,54.065h-31.7c-19.389,0-29.875,3.622-33.056,4.949c-8.974,4.285-18.236,12.269-21.787,27.533
		c-0.389,1.46-0.659,3.033-0.905,4.646c-0.162,1.138-0.232,2.37-0.318,3.546c-0.09,1.251-0.341,2.313-0.341,3.641v30.965
		c0,0,0.943,46.362,45.552,46.362h476.777c48.05,0,51.511-46.04,51.69-56.298V30.211C596.67,13.601,583.073,0,566.473,0L566.473,0z"
		/>
</g>
<g>
</g>
<g>
</g>
<g>
</g>
<g>
</g>
<g>
</g>
<g>
</g>
<g>
</g>
<g>
</g>
<g>
</g>
<g>
</g>
<g>
</g>
<g>
</g>
<g>
</g>
<g>
</g>
<g>
</g>
</svg>
