<?xml version="1.0" ?><svg xmlns="http://www.w3.org/2000/svg" xmlns:xlink="http://www.w3.org/1999/xlink" version="1.0" viewBox="0 0 48 48" enable-background="new 0 0 48 48" xml:space="preserve"><g id="Layer_1"/><g id="_x34__x5F_Money"><path d="M6,31h32c1.654,0,3-1.346,3-3V11c0-1.654-1.346-3-3-3H6c-1.654,0-3,1.346-3,3v17C3,29.654,4.346,31,6,31z M5,11   c0-0.551,0.449-1,1-1h32c0.552,0,1,0.449,1,1v17c0,0.552-0.448,1-1,1H6c-0.551,0-1-0.448-1-1V11z M45,9.5V30c0,2.757-2.243,5-5,5H4   c-0.552,0-1-0.447-1-1s0.448-1,1-1h36c1.654,0,3-1.346,3-3V9.5c0-0.552,0.447-1,1-1S45,8.948,45,9.5z M45,36c0,1.654-1.346,3-3,3H4   c-0.552,0-1-0.447-1-1s0.448-1,1-1h38c0.552,0,1-0.448,1-1c0-0.553,0.447-1,1-1S45,35.447,45,36z M24,21.5   c0-0.827-0.673-1.5-1.5-1.5H21c-1.654,0-3-1.346-3-3s1.346-3,3-3v-1c0-0.552,0.448-1,1-1s1,0.448,1,1v1h2c0.553,0,1,0.448,1,1   s-0.447,1-1,1h-4c-0.551,0-1,0.449-1,1s0.449,1,1,1h1.5c1.93,0,3.5,1.57,3.5,3.5c0,1.758-1.308,3.204-3,3.449V26   c0,0.553-0.448,1-1,1s-1-0.447-1-1v-1h-2c-0.552,0-1-0.448-1-1s0.448-1,1-1h3.5C23.327,23,24,22.327,24,21.5z M8,27h7.508   c0.373,0,0.714-0.207,0.886-0.537s0.147-0.729-0.065-1.034C15.521,24.269,15,21.941,15,19.5s0.521-4.769,1.329-5.929   c0.213-0.306,0.238-0.704,0.065-1.034C16.222,12.207,15.88,12,15.508,12H8c-0.552,0-1,0.448-1,1v13C7,26.553,7.448,27,8,27z M9,14   h4.885C13.32,15.492,13,17.429,13,19.5s0.32,4.008,0.885,5.5H9V14z M27.605,26.463C27.778,26.793,28.12,27,28.492,27H36   c0.553,0,1-0.447,1-1V13c0-0.552-0.447-1-1-1h-7.508c-0.372,0-0.714,0.207-0.887,0.537c-0.172,0.33-0.146,0.728,0.065,1.034   C28.479,14.731,29,17.059,29,19.5s-0.521,4.769-1.329,5.929C27.459,25.734,27.434,26.133,27.605,26.463z M30.115,14H35v11h-4.885   C30.681,23.508,31,21.571,31,19.5S30.681,15.492,30.115,14z"/></g></svg>