<svg id="Expnaded" xmlns="http://www.w3.org/2000/svg" viewBox="0 0 96 96"><path d="M48,76.17A37.09,37.09,0,1,1,85.08,39.08,37.13,37.13,0,0,1,48,76.17ZM48,4A35.09,35.09,0,1,0,83.08,39.08,35.12,35.12,0,0,0,48,4Z"/><path d="M48,46.59a7.51,7.51,0,1,1,7.5-7.51A7.51,7.51,0,0,1,48,46.59Zm0-13a5.51,5.51,0,1,0,5.5,5.5A5.5,5.5,0,0,0,48,33.58Z"/><path d="M71.56,51.44l-.38,0c-3.14-.22-6.25-3.13-9.24-8.64-1.34-2.46-3.83-3.6-7.42-3.41a1,1,0,0,1-1.05-.94,1,1,0,0,1,.94-1c4.36-.25,7.57,1.3,9.28,4.44,2.58,4.74,5.29,7.44,7.64,7.61a3,3,0,0,0,2.61-1.14c1-1.28,7-18.34-6.62-28.69-3-2.29-5.78-3-8.23-2.08C52.55,20,49.78,32.7,49.75,32.83a1,1,0,0,1-2-.41c.12-.57,3-14,10.6-16.78,3.14-1.16,6.55-.37,10.15,2.37,14.12,10.73,8.85,29,7,31.48A5.06,5.06,0,0,1,71.56,51.44Z"/><path d="M65.25,23.83a1,1,0,0,1-.89-.54A3.41,3.41,0,0,0,62,21.76a2.22,2.22,0,0,0-2,.6A1,1,0,1,1,58.57,21a4.15,4.15,0,0,1,3.69-1.19,5.32,5.32,0,0,1,3.88,2.58,1,1,0,0,1-.43,1.34A1,1,0,0,1,65.25,23.83Z"/><path d="M31.46,44.36c-3.27,0-6.6-.61-9-2.56-2.57-2.13-3.59-5.48-3-10C21.71,14.25,40.16,9.68,43.24,10a5,5,0,0,1,3.86,2.8c1.37,2.83.4,7-2.87,12.33-1.46,2.38-1.2,5.12.76,8.12a1,1,0,1,1-1.68,1.1c-2.38-3.66-2.65-7.21-.78-10.27,2.81-4.59,3.79-8.29,2.77-10.41A3.06,3.06,0,0,0,43,12c-1.6-.17-19.38,3.11-21.54,20.07-.47,3.76.31,6.5,2.32,8.17,5.37,4.45,17.81.48,17.93.44a1,1,0,0,1,.62,1.9A39.57,39.57,0,0,1,31.46,44.36Z"/><path d="M27.27,39A1,1,0,0,1,27,39a4.13,4.13,0,0,1-2.87-2.6,5.34,5.34,0,0,1,.29-4.65,1,1,0,0,1,1.69,1.08A3.43,3.43,0,0,0,26,35.65,2.19,2.19,0,0,0,27.51,37a1,1,0,0,1-.24,2Z"/><path d="M46.78,69.31c-11.87,0-20.58-9.3-21.56-11.58a5,5,0,0,1,.5-4.74c1.77-2.6,5.85-3.84,12.11-3.68,2.79.09,5-1.52,6.66-4.72a1,1,0,1,1,1.78.9c-2,3.9-4.93,5.9-8.49,5.82-5.41-.15-9.08.86-10.4,2.8a3.06,3.06,0,0,0-.32,2.83c.63,1.47,12.38,15.24,28.15,8.62,3.49-1.46,5.49-3.51,5.92-6.09,1.16-6.89-8.49-15.66-8.59-15.75a1,1,0,1,1,1.34-1.48c.43.38,10.57,9.6,9.22,17.56-.56,3.3-3,5.86-7.12,7.61A23.73,23.73,0,0,1,46.78,69.31Z"/><path d="M53.58,63.16h-.17a1,1,0,0,1-.95-1,1,1,0,0,1,1-1A3.34,3.34,0,0,0,56,59.84a2.16,2.16,0,0,0,.46-2,1,1,0,0,1,1.92-.56,4.13,4.13,0,0,1-.81,3.79A5.39,5.39,0,0,1,53.58,63.16Z"/><path d="M55.24,85.5H40.76a1,1,0,0,1-1-1V74.44a1,1,0,0,1,2,0V83.5H54.24V74.44a1,1,0,0,1,2,0V84.5A1,1,0,0,1,55.24,85.5Z"/><path d="M67.93,94H28.07a1,1,0,0,1-1-1V89.8a6.31,6.31,0,0,1,6.3-6.3H62.63a6.31,6.31,0,0,1,6.3,6.3V93A1,1,0,0,1,67.93,94ZM29.07,92H66.93V89.8a4.31,4.31,0,0,0-4.3-4.3H33.37a4.31,4.31,0,0,0-4.3,4.3Z"/></svg>